# xmcd CD database file
# Copyright (C) 1997 Ti Kan
# 
# Track frame offsets:
#     182
#     11997
#     25580
#     36360
#     49197
#     59135
#     70040
#     79992
#     92482
#     104932
#     121207
#     133982
#     148002
#     160697
#     172047
#     181887
#     194315
#     204967
#     215300
#     224605
#     234645
#     247185
# 
# Disc length: 3438 seconds
# 
# Revision: 1
# Processed by: cddbd v1.4b41PL1 Copyright (c) Steve Scherf et al.
# Submitted via: DiscPlay 4.0.3
# 
DISCID=520d6c16
DTITLE=Chuck Jackson - Chuck Jackson The Great Recordings Disc B
DYEAR=1900
DGENRE=
TTITLE0=Since I Don't Have You
TTITLE1=I Need You (with Maxine Brown)
TTITLE2=Soul Brother Twist
TTITLE3=Something You Got (with Maxine Brown)
TTITLE4=If I Didn't Love You
TTITLE5=Just A little Bit Of Soul
TTITLE6=Can't Let You Out Of My Sight (with Maxine Brown)
TTITLE7=Good Things Come To Those Who Wait
TTITLE8=Yah
TTITLE9=All In My Mind
TTITLE10=And That's Saying A Lot
TTITLE11=Where Did She Stay
TTITLE12=Hold On I'm Coming (with Maxine Brown)
TTITLE13=Never Had It So Good (with Maxine Brown)
TTITLE14=Every Man Needs A Down Home Girl
TTITLE15=Need You There (To See Me Through)
TTITLE16=Daddy's Home (with Maxine Brown)
TTITLE17=Satisfaction
TTITLE18=Hound Dog
TTITLE19=Jailhouse Rock
TTITLE20=Shame On Me
TTITLE21=Candy
EXTD=
EXTT0=
EXTT1=
EXTT2=
EXTT3=
EXTT4=
EXTT5=
EXTT6=
EXTT7=
EXTT8=
EXTT9=
EXTT10=
EXTT11=
EXTT12=
EXTT13=
EXTT14=
EXTT15=
EXTT16=
EXTT17=
EXTT18=
EXTT19=
EXTT20=
EXTT21=
PLAYORDER=
